<mxfile host="app.diagrams.net" modified="2024-05-21T18:48:17.367Z" agent="Mozilla/5.0 (Windows NT 10.0; Win64; x64) AppleWebKit/537.36 (KHTML, like Gecko) Chrome/124.0.0.0 Safari/537.36" etag="BUtS-DebW9FQpvcNxiMR" version="24.4.4" type="device" pages="7">
  <diagram name="Musician" id="4VBvUPtXRt7mFBi1T9Ez">
    <mxGraphModel dx="1290" dy="557" grid="1" gridSize="10" guides="1" tooltips="1" connect="1" arrows="1" fold="1" page="1" pageScale="1" pageWidth="827" pageHeight="1169" math="0" shadow="0">
      <root>
        <mxCell id="0" />
        <mxCell id="1" parent="0" />
        <mxCell id="BBh9mxqpau72q3jFxBGi-1" value="" style="group" vertex="1" connectable="0" parent="1">
          <mxGeometry x="30" y="40" width="450" height="330" as="geometry" />
        </mxCell>
        <mxCell id="BBh9mxqpau72q3jFxBGi-2" value="" style="group" vertex="1" connectable="0" parent="BBh9mxqpau72q3jFxBGi-1">
          <mxGeometry width="90" height="90" as="geometry" />
        </mxCell>
        <mxCell id="BBh9mxqpau72q3jFxBGi-3" value="" style="ellipse;whiteSpace=wrap;html=1;aspect=fixed;fillColor=none;" vertex="1" parent="BBh9mxqpau72q3jFxBGi-2">
          <mxGeometry width="90" height="90" as="geometry" />
        </mxCell>
        <mxCell id="BBh9mxqpau72q3jFxBGi-4" value="&lt;font style=&quot;font-size: 15px;&quot;&gt;&lt;b&gt;1&lt;/b&gt;&lt;/font&gt;" style="ellipse;whiteSpace=wrap;html=1;aspect=fixed;fillColor=none;" vertex="1" parent="BBh9mxqpau72q3jFxBGi-2">
          <mxGeometry x="25" width="40" height="40" as="geometry" />
        </mxCell>
        <mxCell id="BBh9mxqpau72q3jFxBGi-5" value="&lt;span style=&quot;font-size: 14px;&quot;&gt;&lt;b&gt;Джон&lt;/b&gt;&lt;/span&gt;" style="text;html=1;strokeColor=none;fillColor=none;align=center;verticalAlign=middle;whiteSpace=wrap;rounded=0;" vertex="1" parent="BBh9mxqpau72q3jFxBGi-2">
          <mxGeometry x="15" y="40" width="60" height="30" as="geometry" />
        </mxCell>
        <mxCell id="BBh9mxqpau72q3jFxBGi-6" value="" style="group" vertex="1" connectable="0" parent="BBh9mxqpau72q3jFxBGi-1">
          <mxGeometry x="120" width="90" height="90" as="geometry" />
        </mxCell>
        <mxCell id="BBh9mxqpau72q3jFxBGi-7" value="" style="ellipse;whiteSpace=wrap;html=1;aspect=fixed;fillColor=none;" vertex="1" parent="BBh9mxqpau72q3jFxBGi-6">
          <mxGeometry width="90" height="90" as="geometry" />
        </mxCell>
        <mxCell id="BBh9mxqpau72q3jFxBGi-8" value="&lt;font style=&quot;font-size: 15px;&quot;&gt;&lt;b&gt;2&lt;/b&gt;&lt;/font&gt;" style="ellipse;whiteSpace=wrap;html=1;aspect=fixed;fillColor=none;" vertex="1" parent="BBh9mxqpau72q3jFxBGi-6">
          <mxGeometry x="25" width="40" height="40" as="geometry" />
        </mxCell>
        <mxCell id="BBh9mxqpau72q3jFxBGi-9" value="&lt;span style=&quot;font-size: 14px;&quot;&gt;&lt;b&gt;Пол&lt;/b&gt;&lt;/span&gt;" style="text;html=1;strokeColor=none;fillColor=none;align=center;verticalAlign=middle;whiteSpace=wrap;rounded=0;" vertex="1" parent="BBh9mxqpau72q3jFxBGi-6">
          <mxGeometry x="15" y="40" width="60" height="30" as="geometry" />
        </mxCell>
        <mxCell id="BBh9mxqpau72q3jFxBGi-10" value="" style="group" vertex="1" connectable="0" parent="BBh9mxqpau72q3jFxBGi-1">
          <mxGeometry x="240" width="90" height="90" as="geometry" />
        </mxCell>
        <mxCell id="BBh9mxqpau72q3jFxBGi-11" value="" style="ellipse;whiteSpace=wrap;html=1;aspect=fixed;fillColor=none;" vertex="1" parent="BBh9mxqpau72q3jFxBGi-10">
          <mxGeometry width="90" height="90" as="geometry" />
        </mxCell>
        <mxCell id="BBh9mxqpau72q3jFxBGi-12" value="&lt;font style=&quot;font-size: 15px;&quot;&gt;&lt;b&gt;3&lt;/b&gt;&lt;/font&gt;" style="ellipse;whiteSpace=wrap;html=1;aspect=fixed;fillColor=none;" vertex="1" parent="BBh9mxqpau72q3jFxBGi-10">
          <mxGeometry x="25" width="40" height="40" as="geometry" />
        </mxCell>
        <mxCell id="BBh9mxqpau72q3jFxBGi-13" value="&lt;span style=&quot;font-size: 14px;&quot;&gt;&lt;b&gt;Джордж&lt;/b&gt;&lt;/span&gt;" style="text;html=1;strokeColor=none;fillColor=none;align=center;verticalAlign=middle;whiteSpace=wrap;rounded=0;" vertex="1" parent="BBh9mxqpau72q3jFxBGi-10">
          <mxGeometry x="15" y="40" width="60" height="30" as="geometry" />
        </mxCell>
        <mxCell id="BBh9mxqpau72q3jFxBGi-14" value="" style="group" vertex="1" connectable="0" parent="BBh9mxqpau72q3jFxBGi-1">
          <mxGeometry x="360" width="90" height="90" as="geometry" />
        </mxCell>
        <mxCell id="BBh9mxqpau72q3jFxBGi-15" value="" style="ellipse;whiteSpace=wrap;html=1;aspect=fixed;fillColor=none;" vertex="1" parent="BBh9mxqpau72q3jFxBGi-14">
          <mxGeometry width="90" height="90" as="geometry" />
        </mxCell>
        <mxCell id="BBh9mxqpau72q3jFxBGi-16" value="&lt;font style=&quot;font-size: 15px;&quot;&gt;&lt;b&gt;4&lt;/b&gt;&lt;/font&gt;" style="ellipse;whiteSpace=wrap;html=1;aspect=fixed;fillColor=none;" vertex="1" parent="BBh9mxqpau72q3jFxBGi-14">
          <mxGeometry x="25" width="40" height="40" as="geometry" />
        </mxCell>
        <mxCell id="BBh9mxqpau72q3jFxBGi-17" value="&lt;span style=&quot;font-size: 14px;&quot;&gt;&lt;b&gt;Ринго&lt;/b&gt;&lt;/span&gt;" style="text;html=1;strokeColor=none;fillColor=none;align=center;verticalAlign=middle;whiteSpace=wrap;rounded=0;" vertex="1" parent="BBh9mxqpau72q3jFxBGi-14">
          <mxGeometry x="15" y="40" width="60" height="30" as="geometry" />
        </mxCell>
        <mxCell id="BBh9mxqpau72q3jFxBGi-18" value="" style="group" vertex="1" connectable="0" parent="BBh9mxqpau72q3jFxBGi-1">
          <mxGeometry x="120" y="120" width="90" height="90" as="geometry" />
        </mxCell>
        <mxCell id="BBh9mxqpau72q3jFxBGi-19" value="" style="ellipse;whiteSpace=wrap;html=1;aspect=fixed;fillColor=none;" vertex="1" parent="BBh9mxqpau72q3jFxBGi-18">
          <mxGeometry width="90" height="90" as="geometry" />
        </mxCell>
        <mxCell id="BBh9mxqpau72q3jFxBGi-20" value="&lt;font style=&quot;font-size: 15px;&quot;&gt;&lt;b&gt;6&lt;/b&gt;&lt;/font&gt;" style="ellipse;whiteSpace=wrap;html=1;aspect=fixed;fillColor=none;" vertex="1" parent="BBh9mxqpau72q3jFxBGi-18">
          <mxGeometry x="25" width="40" height="40" as="geometry" />
        </mxCell>
        <mxCell id="BBh9mxqpau72q3jFxBGi-21" value="&lt;span style=&quot;font-size: 15px;&quot;&gt;&lt;b&gt;Кит&lt;/b&gt;&lt;/span&gt;" style="text;html=1;strokeColor=none;fillColor=none;align=center;verticalAlign=middle;whiteSpace=wrap;rounded=0;" vertex="1" parent="BBh9mxqpau72q3jFxBGi-18">
          <mxGeometry x="15" y="40" width="60" height="30" as="geometry" />
        </mxCell>
        <mxCell id="BBh9mxqpau72q3jFxBGi-22" value="" style="group" vertex="1" connectable="0" parent="BBh9mxqpau72q3jFxBGi-1">
          <mxGeometry x="239" y="120" width="90" height="90" as="geometry" />
        </mxCell>
        <mxCell id="BBh9mxqpau72q3jFxBGi-23" value="" style="ellipse;whiteSpace=wrap;html=1;aspect=fixed;fillColor=none;" vertex="1" parent="BBh9mxqpau72q3jFxBGi-22">
          <mxGeometry width="90" height="90" as="geometry" />
        </mxCell>
        <mxCell id="BBh9mxqpau72q3jFxBGi-24" value="&lt;font style=&quot;font-size: 15px;&quot;&gt;&lt;b&gt;7&lt;/b&gt;&lt;/font&gt;" style="ellipse;whiteSpace=wrap;html=1;aspect=fixed;fillColor=none;" vertex="1" parent="BBh9mxqpau72q3jFxBGi-22">
          <mxGeometry x="25" width="40" height="40" as="geometry" />
        </mxCell>
        <mxCell id="BBh9mxqpau72q3jFxBGi-25" value="&lt;span style=&quot;font-size: 15px;&quot;&gt;&lt;b&gt;Чарли&lt;/b&gt;&lt;/span&gt;" style="text;html=1;strokeColor=none;fillColor=none;align=center;verticalAlign=middle;whiteSpace=wrap;rounded=0;" vertex="1" parent="BBh9mxqpau72q3jFxBGi-22">
          <mxGeometry x="15" y="40" width="60" height="30" as="geometry" />
        </mxCell>
        <mxCell id="BBh9mxqpau72q3jFxBGi-26" value="" style="group" vertex="1" connectable="0" parent="BBh9mxqpau72q3jFxBGi-1">
          <mxGeometry x="360" y="120" width="90" height="90" as="geometry" />
        </mxCell>
        <mxCell id="BBh9mxqpau72q3jFxBGi-27" value="" style="ellipse;whiteSpace=wrap;html=1;aspect=fixed;fillColor=none;" vertex="1" parent="BBh9mxqpau72q3jFxBGi-26">
          <mxGeometry width="90" height="90" as="geometry" />
        </mxCell>
        <mxCell id="BBh9mxqpau72q3jFxBGi-28" value="&lt;font style=&quot;font-size: 15px;&quot;&gt;&lt;b&gt;8&lt;/b&gt;&lt;/font&gt;" style="ellipse;whiteSpace=wrap;html=1;aspect=fixed;fillColor=none;" vertex="1" parent="BBh9mxqpau72q3jFxBGi-26">
          <mxGeometry x="25" width="40" height="40" as="geometry" />
        </mxCell>
        <mxCell id="BBh9mxqpau72q3jFxBGi-29" value="&lt;span style=&quot;font-size: 15px;&quot;&gt;&lt;b&gt;Ронни&lt;/b&gt;&lt;/span&gt;" style="text;html=1;strokeColor=none;fillColor=none;align=center;verticalAlign=middle;whiteSpace=wrap;rounded=0;" vertex="1" parent="BBh9mxqpau72q3jFxBGi-26">
          <mxGeometry x="15" y="40" width="60" height="30" as="geometry" />
        </mxCell>
        <mxCell id="BBh9mxqpau72q3jFxBGi-34" value="" style="group" vertex="1" connectable="0" parent="BBh9mxqpau72q3jFxBGi-1">
          <mxGeometry y="120" width="90" height="90" as="geometry" />
        </mxCell>
        <mxCell id="BBh9mxqpau72q3jFxBGi-35" value="" style="ellipse;whiteSpace=wrap;html=1;aspect=fixed;fillColor=none;" vertex="1" parent="BBh9mxqpau72q3jFxBGi-34">
          <mxGeometry width="90" height="90" as="geometry" />
        </mxCell>
        <mxCell id="BBh9mxqpau72q3jFxBGi-36" value="&lt;font style=&quot;font-size: 15px;&quot;&gt;&lt;b&gt;5&lt;/b&gt;&lt;/font&gt;" style="ellipse;whiteSpace=wrap;html=1;aspect=fixed;fillColor=none;" vertex="1" parent="BBh9mxqpau72q3jFxBGi-34">
          <mxGeometry x="25" width="40" height="40" as="geometry" />
        </mxCell>
        <mxCell id="BBh9mxqpau72q3jFxBGi-37" value="&lt;span style=&quot;font-size: 15px;&quot;&gt;&lt;b&gt;Мик&lt;/b&gt;&lt;/span&gt;" style="text;html=1;strokeColor=none;fillColor=none;align=center;verticalAlign=middle;whiteSpace=wrap;rounded=0;" vertex="1" parent="BBh9mxqpau72q3jFxBGi-34">
          <mxGeometry x="15" y="40" width="60" height="30" as="geometry" />
        </mxCell>
      </root>
    </mxGraphModel>
  </diagram>
  <diagram id="yfGyVh8VV5L-jdt-Bnf5" name="Bands">
    <mxGraphModel dx="1290" dy="557" grid="1" gridSize="10" guides="1" tooltips="1" connect="1" arrows="1" fold="1" page="1" pageScale="1" pageWidth="827" pageHeight="1169" math="0" shadow="0">
      <root>
        <mxCell id="0" />
        <mxCell id="1" parent="0" />
        <mxCell id="RCgnOjTNnVF4bYD_hs6j-1" value="" style="group" vertex="1" connectable="0" parent="1">
          <mxGeometry x="60" y="60" width="120" height="70" as="geometry" />
        </mxCell>
        <mxCell id="RCgnOjTNnVF4bYD_hs6j-2" value="" style="shape=hexagon;perimeter=hexagonPerimeter2;whiteSpace=wrap;html=1;fixedSize=1;fillColor=none;" vertex="1" parent="RCgnOjTNnVF4bYD_hs6j-1">
          <mxGeometry width="120" height="70" as="geometry" />
        </mxCell>
        <mxCell id="RCgnOjTNnVF4bYD_hs6j-3" value="&lt;b&gt;&lt;font style=&quot;font-size: 15px;&quot;&gt;1&lt;/font&gt;&lt;/b&gt;" style="rounded=0;whiteSpace=wrap;html=1;fillColor=none;" vertex="1" parent="RCgnOjTNnVF4bYD_hs6j-1">
          <mxGeometry x="40" width="40" height="30" as="geometry" />
        </mxCell>
        <mxCell id="RCgnOjTNnVF4bYD_hs6j-4" value="&lt;span style=&quot;font-size: 13px;&quot;&gt;&lt;b&gt;Битлз&lt;/b&gt;&lt;/span&gt;" style="text;html=1;strokeColor=none;fillColor=none;align=center;verticalAlign=middle;whiteSpace=wrap;rounded=0;fontFamily=Helvetica;" vertex="1" parent="RCgnOjTNnVF4bYD_hs6j-1">
          <mxGeometry x="30" y="30" width="60" height="30" as="geometry" />
        </mxCell>
        <mxCell id="RCgnOjTNnVF4bYD_hs6j-5" value="" style="group" vertex="1" connectable="0" parent="1">
          <mxGeometry x="200" y="60" width="120" height="70" as="geometry" />
        </mxCell>
        <mxCell id="RCgnOjTNnVF4bYD_hs6j-6" value="" style="shape=hexagon;perimeter=hexagonPerimeter2;whiteSpace=wrap;html=1;fixedSize=1;fillColor=none;" vertex="1" parent="RCgnOjTNnVF4bYD_hs6j-5">
          <mxGeometry width="120" height="70" as="geometry" />
        </mxCell>
        <mxCell id="RCgnOjTNnVF4bYD_hs6j-7" value="&lt;b&gt;&lt;font style=&quot;font-size: 15px;&quot;&gt;2&lt;/font&gt;&lt;/b&gt;" style="rounded=0;whiteSpace=wrap;html=1;fillColor=none;" vertex="1" parent="RCgnOjTNnVF4bYD_hs6j-5">
          <mxGeometry x="40" width="40" height="30" as="geometry" />
        </mxCell>
        <mxCell id="RCgnOjTNnVF4bYD_hs6j-8" value="&lt;span style=&quot;font-size: 13px;&quot;&gt;&lt;b&gt;Роллинг Стоунз&lt;/b&gt;&lt;/span&gt;" style="text;html=1;strokeColor=none;fillColor=none;align=center;verticalAlign=middle;whiteSpace=wrap;rounded=0;fontFamily=Helvetica;" vertex="1" parent="RCgnOjTNnVF4bYD_hs6j-5">
          <mxGeometry x="30" y="30" width="60" height="30" as="geometry" />
        </mxCell>
      </root>
    </mxGraphModel>
  </diagram>
  <diagram id="1OUPQV5w4vHYSSQdfJlJ" name="ConcertHall">
    <mxGraphModel dx="1290" dy="557" grid="1" gridSize="10" guides="1" tooltips="1" connect="1" arrows="1" fold="1" page="1" pageScale="1" pageWidth="827" pageHeight="1169" math="0" shadow="0">
      <root>
        <mxCell id="0" />
        <mxCell id="1" parent="0" />
        <mxCell id="ETYi2jsQlwtlWg5E2I4D-1" value="" style="group" vertex="1" connectable="0" parent="1">
          <mxGeometry x="80" y="80" width="130" height="80" as="geometry" />
        </mxCell>
        <mxCell id="ETYi2jsQlwtlWg5E2I4D-2" value="" style="rounded=0;whiteSpace=wrap;html=1;fillColor=none;" vertex="1" parent="ETYi2jsQlwtlWg5E2I4D-1">
          <mxGeometry width="120" height="80" as="geometry" />
        </mxCell>
        <mxCell id="ETYi2jsQlwtlWg5E2I4D-3" value="&lt;b&gt;&lt;font style=&quot;font-size: 15px;&quot;&gt;1&lt;/font&gt;&lt;/b&gt;" style="rounded=0;whiteSpace=wrap;html=1;fillColor=none;" vertex="1" parent="ETYi2jsQlwtlWg5E2I4D-1">
          <mxGeometry x="40" width="40" height="30" as="geometry" />
        </mxCell>
        <mxCell id="ETYi2jsQlwtlWg5E2I4D-4" value="&lt;b style=&quot;&quot;&gt;&lt;font style=&quot;font-size: 12px;&quot;&gt;Мэдисон Сквер Гарден&lt;/font&gt;&lt;/b&gt;" style="text;html=1;strokeColor=none;fillColor=none;align=center;verticalAlign=middle;whiteSpace=wrap;rounded=0;" vertex="1" parent="ETYi2jsQlwtlWg5E2I4D-1">
          <mxGeometry x="10" y="40" width="100" height="30" as="geometry" />
        </mxCell>
        <mxCell id="ETYi2jsQlwtlWg5E2I4D-5" value="" style="group" vertex="1" connectable="0" parent="1">
          <mxGeometry x="240" y="80" width="120" height="80" as="geometry" />
        </mxCell>
        <mxCell id="ETYi2jsQlwtlWg5E2I4D-6" value="" style="rounded=0;whiteSpace=wrap;html=1;fillColor=none;" vertex="1" parent="ETYi2jsQlwtlWg5E2I4D-5">
          <mxGeometry width="120" height="80" as="geometry" />
        </mxCell>
        <mxCell id="ETYi2jsQlwtlWg5E2I4D-7" value="&lt;b&gt;&lt;font style=&quot;font-size: 15px;&quot;&gt;2&lt;/font&gt;&lt;/b&gt;" style="rounded=0;whiteSpace=wrap;html=1;fillColor=none;" vertex="1" parent="ETYi2jsQlwtlWg5E2I4D-5">
          <mxGeometry x="40" width="40" height="30" as="geometry" />
        </mxCell>
        <mxCell id="ETYi2jsQlwtlWg5E2I4D-8" value="&lt;b&gt;О2 Арена&lt;/b&gt;" style="text;html=1;strokeColor=none;fillColor=none;align=center;verticalAlign=middle;whiteSpace=wrap;rounded=0;" vertex="1" parent="ETYi2jsQlwtlWg5E2I4D-5">
          <mxGeometry x="10" y="40" width="100" height="30" as="geometry" />
        </mxCell>
        <mxCell id="ETYi2jsQlwtlWg5E2I4D-9" value="" style="group" vertex="1" connectable="0" parent="1">
          <mxGeometry x="400" y="80" width="120" height="80" as="geometry" />
        </mxCell>
        <mxCell id="ETYi2jsQlwtlWg5E2I4D-10" value="" style="rounded=0;whiteSpace=wrap;html=1;fillColor=none;" vertex="1" parent="ETYi2jsQlwtlWg5E2I4D-9">
          <mxGeometry width="120" height="80" as="geometry" />
        </mxCell>
        <mxCell id="ETYi2jsQlwtlWg5E2I4D-11" value="&lt;b&gt;&lt;font style=&quot;font-size: 15px;&quot;&gt;3&lt;/font&gt;&lt;/b&gt;" style="rounded=0;whiteSpace=wrap;html=1;fillColor=none;" vertex="1" parent="ETYi2jsQlwtlWg5E2I4D-9">
          <mxGeometry x="40" width="40" height="30" as="geometry" />
        </mxCell>
        <mxCell id="ETYi2jsQlwtlWg5E2I4D-12" value="&lt;b style=&quot;&quot;&gt;&lt;font style=&quot;font-size: 12px;&quot;&gt;Будокан&lt;/font&gt;&lt;/b&gt;" style="text;html=1;strokeColor=none;fillColor=none;align=center;verticalAlign=middle;whiteSpace=wrap;rounded=0;" vertex="1" parent="ETYi2jsQlwtlWg5E2I4D-9">
          <mxGeometry x="10" y="40" width="100" height="30" as="geometry" />
        </mxCell>
      </root>
    </mxGraphModel>
  </diagram>
  <diagram id="4zrS7G3IdrGm_T2kcvTM" name="City">
    <mxGraphModel dx="1290" dy="557" grid="1" gridSize="10" guides="1" tooltips="1" connect="1" arrows="1" fold="1" page="1" pageScale="1" pageWidth="827" pageHeight="1169" math="0" shadow="0">
      <root>
        <mxCell id="0" />
        <mxCell id="1" parent="0" />
        <mxCell id="gNX2sNkYEA08RtJv4U4j-1" value="" style="triangle;whiteSpace=wrap;html=1;rotation=-90;" vertex="1" parent="1">
          <mxGeometry x="100" y="100" width="80" height="120" as="geometry" />
        </mxCell>
        <mxCell id="0O1siwTKMWzBsw20IxvM-1" value="" style="ellipse;whiteSpace=wrap;html=1;" vertex="1" parent="1">
          <mxGeometry x="125" y="130" width="30" height="30" as="geometry" />
        </mxCell>
        <mxCell id="0O1siwTKMWzBsw20IxvM-3" value="1" style="text;html=1;align=center;verticalAlign=middle;whiteSpace=wrap;rounded=0;" vertex="1" parent="1">
          <mxGeometry x="125" y="135" width="30" height="20" as="geometry" />
        </mxCell>
        <mxCell id="0O1siwTKMWzBsw20IxvM-4" value="" style="triangle;whiteSpace=wrap;html=1;rotation=-90;" vertex="1" parent="1">
          <mxGeometry x="260" y="100" width="80" height="120" as="geometry" />
        </mxCell>
        <mxCell id="0O1siwTKMWzBsw20IxvM-5" value="" style="ellipse;whiteSpace=wrap;html=1;" vertex="1" parent="1">
          <mxGeometry x="285" y="130" width="30" height="30" as="geometry" />
        </mxCell>
        <mxCell id="0O1siwTKMWzBsw20IxvM-6" value="2" style="text;html=1;align=center;verticalAlign=middle;whiteSpace=wrap;rounded=0;" vertex="1" parent="1">
          <mxGeometry x="285" y="135" width="30" height="20" as="geometry" />
        </mxCell>
        <mxCell id="0O1siwTKMWzBsw20IxvM-11" value="" style="triangle;whiteSpace=wrap;html=1;rotation=-90;" vertex="1" parent="1">
          <mxGeometry x="420" y="100" width="80" height="120" as="geometry" />
        </mxCell>
        <mxCell id="0O1siwTKMWzBsw20IxvM-12" value="" style="ellipse;whiteSpace=wrap;html=1;" vertex="1" parent="1">
          <mxGeometry x="445" y="130" width="30" height="30" as="geometry" />
        </mxCell>
        <mxCell id="0O1siwTKMWzBsw20IxvM-13" value="3" style="text;html=1;align=center;verticalAlign=middle;whiteSpace=wrap;rounded=0;" vertex="1" parent="1">
          <mxGeometry x="445" y="135" width="30" height="20" as="geometry" />
        </mxCell>
        <mxCell id="0O1siwTKMWzBsw20IxvM-14" value="&lt;font style=&quot;font-size: 12px;&quot;&gt;Нью-Йорк&lt;/font&gt;" style="text;html=1;align=center;verticalAlign=middle;whiteSpace=wrap;rounded=0;" vertex="1" parent="1">
          <mxGeometry x="110" y="170" width="60" height="30" as="geometry" />
        </mxCell>
        <mxCell id="0O1siwTKMWzBsw20IxvM-15" value="Лондон" style="text;html=1;align=center;verticalAlign=middle;whiteSpace=wrap;rounded=0;" vertex="1" parent="1">
          <mxGeometry x="270" y="170" width="60" height="30" as="geometry" />
        </mxCell>
        <mxCell id="OckhcikZ_zU5wNW5cwHN-1" value="Токио" style="text;html=1;align=center;verticalAlign=middle;whiteSpace=wrap;rounded=0;" vertex="1" parent="1">
          <mxGeometry x="430" y="170" width="60" height="30" as="geometry" />
        </mxCell>
      </root>
    </mxGraphModel>
  </diagram>
  <diagram id="9Rl4GcQ9Tbtmdk-pEhYQ" name="PlaysIn">
    <mxGraphModel dx="1433" dy="619" grid="1" gridSize="10" guides="1" tooltips="1" connect="1" arrows="1" fold="1" page="1" pageScale="1" pageWidth="827" pageHeight="1169" math="0" shadow="0">
      <root>
        <mxCell id="0" />
        <mxCell id="1" parent="0" />
        <mxCell id="8AEK6c23fVOpux9yy5MX-1" value="" style="group" vertex="1" connectable="0" parent="1">
          <mxGeometry x="30" y="40" width="90" height="90" as="geometry" />
        </mxCell>
        <mxCell id="8AEK6c23fVOpux9yy5MX-2" value="" style="ellipse;whiteSpace=wrap;html=1;aspect=fixed;fillColor=none;" vertex="1" parent="8AEK6c23fVOpux9yy5MX-1">
          <mxGeometry width="90" height="90" as="geometry" />
        </mxCell>
        <mxCell id="8AEK6c23fVOpux9yy5MX-3" value="&lt;font style=&quot;font-size: 15px;&quot;&gt;&lt;b&gt;1&lt;/b&gt;&lt;/font&gt;" style="ellipse;whiteSpace=wrap;html=1;aspect=fixed;fillColor=none;" vertex="1" parent="8AEK6c23fVOpux9yy5MX-1">
          <mxGeometry x="25" width="40" height="40" as="geometry" />
        </mxCell>
        <mxCell id="8AEK6c23fVOpux9yy5MX-4" value="&lt;span style=&quot;font-size: 14px;&quot;&gt;&lt;b&gt;Джон&lt;/b&gt;&lt;/span&gt;" style="text;html=1;strokeColor=none;fillColor=none;align=center;verticalAlign=middle;whiteSpace=wrap;rounded=0;" vertex="1" parent="8AEK6c23fVOpux9yy5MX-1">
          <mxGeometry x="15" y="40" width="60" height="30" as="geometry" />
        </mxCell>
        <mxCell id="KeEpo5yyuRf0KF9IDwoX-1" value="" style="group" vertex="1" connectable="0" parent="1">
          <mxGeometry x="15" y="190" width="120" height="70" as="geometry" />
        </mxCell>
        <mxCell id="KeEpo5yyuRf0KF9IDwoX-2" value="" style="shape=hexagon;perimeter=hexagonPerimeter2;whiteSpace=wrap;html=1;fixedSize=1;fillColor=none;" vertex="1" parent="KeEpo5yyuRf0KF9IDwoX-1">
          <mxGeometry width="120" height="70" as="geometry" />
        </mxCell>
        <mxCell id="KeEpo5yyuRf0KF9IDwoX-3" value="&lt;b&gt;&lt;font style=&quot;font-size: 15px;&quot;&gt;1&lt;/font&gt;&lt;/b&gt;" style="rounded=0;whiteSpace=wrap;html=1;fillColor=none;" vertex="1" parent="KeEpo5yyuRf0KF9IDwoX-1">
          <mxGeometry x="40" width="40" height="30" as="geometry" />
        </mxCell>
        <mxCell id="KeEpo5yyuRf0KF9IDwoX-4" value="&lt;span style=&quot;font-size: 13px;&quot;&gt;&lt;b&gt;Битлз&lt;/b&gt;&lt;/span&gt;" style="text;html=1;strokeColor=none;fillColor=none;align=center;verticalAlign=middle;whiteSpace=wrap;rounded=0;fontFamily=Helvetica;" vertex="1" parent="KeEpo5yyuRf0KF9IDwoX-1">
          <mxGeometry x="30" y="30" width="60" height="30" as="geometry" />
        </mxCell>
        <mxCell id="KeEpo5yyuRf0KF9IDwoX-6" value="" style="group" vertex="1" connectable="0" parent="1">
          <mxGeometry x="175" y="40" width="90" height="90" as="geometry" />
        </mxCell>
        <mxCell id="KeEpo5yyuRf0KF9IDwoX-7" value="" style="ellipse;whiteSpace=wrap;html=1;aspect=fixed;fillColor=none;" vertex="1" parent="KeEpo5yyuRf0KF9IDwoX-6">
          <mxGeometry width="90" height="90" as="geometry" />
        </mxCell>
        <mxCell id="KeEpo5yyuRf0KF9IDwoX-8" value="&lt;b style=&quot;font-size: 15px;&quot;&gt;2&lt;/b&gt;" style="ellipse;whiteSpace=wrap;html=1;aspect=fixed;fillColor=none;" vertex="1" parent="KeEpo5yyuRf0KF9IDwoX-6">
          <mxGeometry x="25" width="40" height="40" as="geometry" />
        </mxCell>
        <mxCell id="KeEpo5yyuRf0KF9IDwoX-9" value="&lt;b style=&quot;font-size: 14px;&quot;&gt;Пол&lt;/b&gt;" style="text;html=1;strokeColor=none;fillColor=none;align=center;verticalAlign=middle;whiteSpace=wrap;rounded=0;" vertex="1" parent="KeEpo5yyuRf0KF9IDwoX-6">
          <mxGeometry x="15" y="40" width="60" height="30" as="geometry" />
        </mxCell>
        <mxCell id="KeEpo5yyuRf0KF9IDwoX-10" value="" style="group" vertex="1" connectable="0" parent="1">
          <mxGeometry x="160" y="190" width="120" height="70" as="geometry" />
        </mxCell>
        <mxCell id="KeEpo5yyuRf0KF9IDwoX-11" value="" style="shape=hexagon;perimeter=hexagonPerimeter2;whiteSpace=wrap;html=1;fixedSize=1;fillColor=none;" vertex="1" parent="KeEpo5yyuRf0KF9IDwoX-10">
          <mxGeometry width="120" height="70" as="geometry" />
        </mxCell>
        <mxCell id="KeEpo5yyuRf0KF9IDwoX-12" value="&lt;b&gt;&lt;font style=&quot;font-size: 15px;&quot;&gt;1&lt;/font&gt;&lt;/b&gt;" style="rounded=0;whiteSpace=wrap;html=1;fillColor=none;" vertex="1" parent="KeEpo5yyuRf0KF9IDwoX-10">
          <mxGeometry x="40" width="40" height="30" as="geometry" />
        </mxCell>
        <mxCell id="KeEpo5yyuRf0KF9IDwoX-13" value="&lt;span style=&quot;font-size: 13px;&quot;&gt;&lt;b&gt;Битлз&lt;/b&gt;&lt;/span&gt;" style="text;html=1;strokeColor=none;fillColor=none;align=center;verticalAlign=middle;whiteSpace=wrap;rounded=0;fontFamily=Helvetica;" vertex="1" parent="KeEpo5yyuRf0KF9IDwoX-10">
          <mxGeometry x="30" y="30" width="60" height="30" as="geometry" />
        </mxCell>
        <mxCell id="KeEpo5yyuRf0KF9IDwoX-14" value="" style="endArrow=classic;html=1;rounded=0;" edge="1" parent="1">
          <mxGeometry width="50" height="50" relative="1" as="geometry">
            <mxPoint x="220" y="140" as="sourcePoint" />
            <mxPoint x="219.5" y="180" as="targetPoint" />
          </mxGeometry>
        </mxCell>
        <mxCell id="KeEpo5yyuRf0KF9IDwoX-35" value="" style="group" vertex="1" connectable="0" parent="1">
          <mxGeometry x="315" y="40" width="90" height="90" as="geometry" />
        </mxCell>
        <mxCell id="KeEpo5yyuRf0KF9IDwoX-36" value="" style="ellipse;whiteSpace=wrap;html=1;aspect=fixed;fillColor=none;" vertex="1" parent="KeEpo5yyuRf0KF9IDwoX-35">
          <mxGeometry width="90" height="90" as="geometry" />
        </mxCell>
        <mxCell id="KeEpo5yyuRf0KF9IDwoX-37" value="&lt;font style=&quot;font-size: 15px;&quot;&gt;&lt;b&gt;3&lt;/b&gt;&lt;/font&gt;" style="ellipse;whiteSpace=wrap;html=1;aspect=fixed;fillColor=none;" vertex="1" parent="KeEpo5yyuRf0KF9IDwoX-35">
          <mxGeometry x="25" width="40" height="40" as="geometry" />
        </mxCell>
        <mxCell id="KeEpo5yyuRf0KF9IDwoX-38" value="&lt;b style=&quot;font-size: 14px;&quot;&gt;Джордж&lt;/b&gt;" style="text;html=1;strokeColor=none;fillColor=none;align=center;verticalAlign=middle;whiteSpace=wrap;rounded=0;" vertex="1" parent="KeEpo5yyuRf0KF9IDwoX-35">
          <mxGeometry x="15" y="40" width="60" height="30" as="geometry" />
        </mxCell>
        <mxCell id="KeEpo5yyuRf0KF9IDwoX-39" value="" style="group" vertex="1" connectable="0" parent="1">
          <mxGeometry x="300" y="190" width="120" height="70" as="geometry" />
        </mxCell>
        <mxCell id="KeEpo5yyuRf0KF9IDwoX-40" value="" style="shape=hexagon;perimeter=hexagonPerimeter2;whiteSpace=wrap;html=1;fixedSize=1;fillColor=none;" vertex="1" parent="KeEpo5yyuRf0KF9IDwoX-39">
          <mxGeometry width="120" height="70" as="geometry" />
        </mxCell>
        <mxCell id="KeEpo5yyuRf0KF9IDwoX-41" value="&lt;b&gt;&lt;font style=&quot;font-size: 15px;&quot;&gt;1&lt;/font&gt;&lt;/b&gt;" style="rounded=0;whiteSpace=wrap;html=1;fillColor=none;" vertex="1" parent="KeEpo5yyuRf0KF9IDwoX-39">
          <mxGeometry x="40" width="40" height="30" as="geometry" />
        </mxCell>
        <mxCell id="KeEpo5yyuRf0KF9IDwoX-42" value="&lt;span style=&quot;font-size: 13px;&quot;&gt;&lt;b&gt;Битлз&lt;/b&gt;&lt;/span&gt;" style="text;html=1;strokeColor=none;fillColor=none;align=center;verticalAlign=middle;whiteSpace=wrap;rounded=0;fontFamily=Helvetica;" vertex="1" parent="KeEpo5yyuRf0KF9IDwoX-39">
          <mxGeometry x="30" y="30" width="60" height="30" as="geometry" />
        </mxCell>
        <mxCell id="KeEpo5yyuRf0KF9IDwoX-64" value="" style="edgeStyle=orthogonalEdgeStyle;rounded=0;orthogonalLoop=1;jettySize=auto;html=1;" edge="1" parent="1" source="KeEpo5yyuRf0KF9IDwoX-7">
          <mxGeometry relative="1" as="geometry">
            <mxPoint x="220" y="180" as="targetPoint" />
          </mxGeometry>
        </mxCell>
        <mxCell id="KeEpo5yyuRf0KF9IDwoX-66" value="" style="edgeStyle=orthogonalEdgeStyle;rounded=0;orthogonalLoop=1;jettySize=auto;html=1;" edge="1" parent="1" source="8AEK6c23fVOpux9yy5MX-2">
          <mxGeometry relative="1" as="geometry">
            <mxPoint x="75" y="180" as="targetPoint" />
            <Array as="points">
              <mxPoint x="75" y="170" />
              <mxPoint x="75" y="170" />
            </Array>
          </mxGeometry>
        </mxCell>
        <mxCell id="KeEpo5yyuRf0KF9IDwoX-68" value="" style="edgeStyle=orthogonalEdgeStyle;rounded=0;orthogonalLoop=1;jettySize=auto;html=1;" edge="1" parent="1" source="KeEpo5yyuRf0KF9IDwoX-36">
          <mxGeometry relative="1" as="geometry">
            <mxPoint x="360" y="180" as="targetPoint" />
          </mxGeometry>
        </mxCell>
        <mxCell id="D-C7-vfYq5c0eptjynE3-11" value="" style="group" vertex="1" connectable="0" parent="1">
          <mxGeometry x="455" y="40" width="90" height="90" as="geometry" />
        </mxCell>
        <mxCell id="D-C7-vfYq5c0eptjynE3-12" value="" style="ellipse;whiteSpace=wrap;html=1;aspect=fixed;fillColor=none;" vertex="1" parent="D-C7-vfYq5c0eptjynE3-11">
          <mxGeometry width="90" height="90" as="geometry" />
        </mxCell>
        <mxCell id="D-C7-vfYq5c0eptjynE3-13" value="&lt;b style=&quot;font-size: 15px;&quot;&gt;4&lt;/b&gt;" style="ellipse;whiteSpace=wrap;html=1;aspect=fixed;fillColor=none;" vertex="1" parent="D-C7-vfYq5c0eptjynE3-11">
          <mxGeometry x="25" width="40" height="40" as="geometry" />
        </mxCell>
        <mxCell id="D-C7-vfYq5c0eptjynE3-14" value="&lt;b style=&quot;font-size: 14px;&quot;&gt;Ринго&lt;/b&gt;" style="text;html=1;strokeColor=none;fillColor=none;align=center;verticalAlign=middle;whiteSpace=wrap;rounded=0;" vertex="1" parent="D-C7-vfYq5c0eptjynE3-11">
          <mxGeometry x="15" y="40" width="60" height="30" as="geometry" />
        </mxCell>
        <mxCell id="D-C7-vfYq5c0eptjynE3-15" value="" style="group" vertex="1" connectable="0" parent="1">
          <mxGeometry x="440" y="190" width="120" height="70" as="geometry" />
        </mxCell>
        <mxCell id="D-C7-vfYq5c0eptjynE3-16" value="" style="shape=hexagon;perimeter=hexagonPerimeter2;whiteSpace=wrap;html=1;fixedSize=1;fillColor=none;" vertex="1" parent="D-C7-vfYq5c0eptjynE3-15">
          <mxGeometry width="120" height="70" as="geometry" />
        </mxCell>
        <mxCell id="D-C7-vfYq5c0eptjynE3-17" value="&lt;b&gt;&lt;font style=&quot;font-size: 15px;&quot;&gt;1&lt;/font&gt;&lt;/b&gt;" style="rounded=0;whiteSpace=wrap;html=1;fillColor=none;" vertex="1" parent="D-C7-vfYq5c0eptjynE3-15">
          <mxGeometry x="40" width="40" height="30" as="geometry" />
        </mxCell>
        <mxCell id="D-C7-vfYq5c0eptjynE3-18" value="&lt;span style=&quot;font-size: 13px;&quot;&gt;&lt;b&gt;Битлз&lt;/b&gt;&lt;/span&gt;" style="text;html=1;strokeColor=none;fillColor=none;align=center;verticalAlign=middle;whiteSpace=wrap;rounded=0;fontFamily=Helvetica;" vertex="1" parent="D-C7-vfYq5c0eptjynE3-15">
          <mxGeometry x="30" y="30" width="60" height="30" as="geometry" />
        </mxCell>
        <mxCell id="D-C7-vfYq5c0eptjynE3-19" value="" style="edgeStyle=orthogonalEdgeStyle;rounded=0;orthogonalLoop=1;jettySize=auto;html=1;" edge="1" parent="1" source="D-C7-vfYq5c0eptjynE3-12">
          <mxGeometry relative="1" as="geometry">
            <mxPoint x="500" y="180" as="targetPoint" />
          </mxGeometry>
        </mxCell>
        <mxCell id="rxUJbZOCz-eb5tTTkF2c-1" value="" style="group" vertex="1" connectable="0" parent="1">
          <mxGeometry x="30" y="320" width="90" height="90" as="geometry" />
        </mxCell>
        <mxCell id="rxUJbZOCz-eb5tTTkF2c-2" value="" style="ellipse;whiteSpace=wrap;html=1;aspect=fixed;fillColor=none;" vertex="1" parent="rxUJbZOCz-eb5tTTkF2c-1">
          <mxGeometry width="90" height="90" as="geometry" />
        </mxCell>
        <mxCell id="rxUJbZOCz-eb5tTTkF2c-3" value="&lt;font style=&quot;font-size: 15px;&quot;&gt;&lt;b&gt;5&lt;/b&gt;&lt;/font&gt;" style="ellipse;whiteSpace=wrap;html=1;aspect=fixed;fillColor=none;" vertex="1" parent="rxUJbZOCz-eb5tTTkF2c-1">
          <mxGeometry x="25" width="40" height="40" as="geometry" />
        </mxCell>
        <mxCell id="rxUJbZOCz-eb5tTTkF2c-4" value="&lt;b style=&quot;font-size: 15px;&quot;&gt;Мик&lt;/b&gt;" style="text;html=1;strokeColor=none;fillColor=none;align=center;verticalAlign=middle;whiteSpace=wrap;rounded=0;" vertex="1" parent="rxUJbZOCz-eb5tTTkF2c-1">
          <mxGeometry x="15" y="40" width="60" height="30" as="geometry" />
        </mxCell>
        <mxCell id="rxUJbZOCz-eb5tTTkF2c-5" value="" style="group" vertex="1" connectable="0" parent="1">
          <mxGeometry x="15" y="470" width="120" height="70" as="geometry" />
        </mxCell>
        <mxCell id="rxUJbZOCz-eb5tTTkF2c-6" value="" style="shape=hexagon;perimeter=hexagonPerimeter2;whiteSpace=wrap;html=1;fixedSize=1;fillColor=none;" vertex="1" parent="rxUJbZOCz-eb5tTTkF2c-5">
          <mxGeometry width="120" height="70" as="geometry" />
        </mxCell>
        <mxCell id="rxUJbZOCz-eb5tTTkF2c-7" value="&lt;b&gt;&lt;font style=&quot;font-size: 15px;&quot;&gt;2&lt;/font&gt;&lt;/b&gt;" style="rounded=0;whiteSpace=wrap;html=1;fillColor=none;" vertex="1" parent="rxUJbZOCz-eb5tTTkF2c-5">
          <mxGeometry x="40" width="40" height="30" as="geometry" />
        </mxCell>
        <mxCell id="rxUJbZOCz-eb5tTTkF2c-8" value="&lt;b style=&quot;font-size: 13px;&quot;&gt;Роллинг Стоунз&lt;/b&gt;" style="text;html=1;strokeColor=none;fillColor=none;align=center;verticalAlign=middle;whiteSpace=wrap;rounded=0;fontFamily=Helvetica;" vertex="1" parent="rxUJbZOCz-eb5tTTkF2c-5">
          <mxGeometry x="30" y="30" width="60" height="30" as="geometry" />
        </mxCell>
        <mxCell id="rxUJbZOCz-eb5tTTkF2c-9" value="" style="group" vertex="1" connectable="0" parent="1">
          <mxGeometry x="175" y="320" width="90" height="90" as="geometry" />
        </mxCell>
        <mxCell id="rxUJbZOCz-eb5tTTkF2c-10" value="" style="ellipse;whiteSpace=wrap;html=1;aspect=fixed;fillColor=none;" vertex="1" parent="rxUJbZOCz-eb5tTTkF2c-9">
          <mxGeometry width="90" height="90" as="geometry" />
        </mxCell>
        <mxCell id="rxUJbZOCz-eb5tTTkF2c-11" value="&lt;b style=&quot;font-size: 15px;&quot;&gt;6&lt;/b&gt;" style="ellipse;whiteSpace=wrap;html=1;aspect=fixed;fillColor=none;" vertex="1" parent="rxUJbZOCz-eb5tTTkF2c-9">
          <mxGeometry x="25" width="40" height="40" as="geometry" />
        </mxCell>
        <mxCell id="rxUJbZOCz-eb5tTTkF2c-12" value="&lt;b style=&quot;font-size: 15px;&quot;&gt;Кит&lt;/b&gt;" style="text;html=1;strokeColor=none;fillColor=none;align=center;verticalAlign=middle;whiteSpace=wrap;rounded=0;" vertex="1" parent="rxUJbZOCz-eb5tTTkF2c-9">
          <mxGeometry x="15" y="40" width="60" height="30" as="geometry" />
        </mxCell>
        <mxCell id="rxUJbZOCz-eb5tTTkF2c-13" value="" style="group" vertex="1" connectable="0" parent="1">
          <mxGeometry x="160" y="470" width="120" height="70" as="geometry" />
        </mxCell>
        <mxCell id="rxUJbZOCz-eb5tTTkF2c-14" value="" style="shape=hexagon;perimeter=hexagonPerimeter2;whiteSpace=wrap;html=1;fixedSize=1;fillColor=none;" vertex="1" parent="rxUJbZOCz-eb5tTTkF2c-13">
          <mxGeometry width="120" height="70" as="geometry" />
        </mxCell>
        <mxCell id="rxUJbZOCz-eb5tTTkF2c-15" value="&lt;b&gt;&lt;font style=&quot;font-size: 15px;&quot;&gt;2&lt;/font&gt;&lt;/b&gt;" style="rounded=0;whiteSpace=wrap;html=1;fillColor=none;" vertex="1" parent="rxUJbZOCz-eb5tTTkF2c-13">
          <mxGeometry x="40" width="40" height="30" as="geometry" />
        </mxCell>
        <mxCell id="rxUJbZOCz-eb5tTTkF2c-16" value="&lt;b style=&quot;font-size: 13px;&quot;&gt;Роллинг Стоунз&lt;/b&gt;" style="text;html=1;strokeColor=none;fillColor=none;align=center;verticalAlign=middle;whiteSpace=wrap;rounded=0;fontFamily=Helvetica;" vertex="1" parent="rxUJbZOCz-eb5tTTkF2c-13">
          <mxGeometry x="30" y="30" width="60" height="30" as="geometry" />
        </mxCell>
        <mxCell id="rxUJbZOCz-eb5tTTkF2c-17" value="" style="endArrow=classic;html=1;rounded=0;" edge="1" parent="1">
          <mxGeometry width="50" height="50" relative="1" as="geometry">
            <mxPoint x="220" y="420" as="sourcePoint" />
            <mxPoint x="219.5" y="460" as="targetPoint" />
          </mxGeometry>
        </mxCell>
        <mxCell id="rxUJbZOCz-eb5tTTkF2c-18" value="" style="group" vertex="1" connectable="0" parent="1">
          <mxGeometry x="315" y="320" width="90" height="90" as="geometry" />
        </mxCell>
        <mxCell id="rxUJbZOCz-eb5tTTkF2c-19" value="" style="ellipse;whiteSpace=wrap;html=1;aspect=fixed;fillColor=none;" vertex="1" parent="rxUJbZOCz-eb5tTTkF2c-18">
          <mxGeometry width="90" height="90" as="geometry" />
        </mxCell>
        <mxCell id="rxUJbZOCz-eb5tTTkF2c-20" value="&lt;font style=&quot;font-size: 15px;&quot;&gt;&lt;b&gt;7&lt;/b&gt;&lt;/font&gt;" style="ellipse;whiteSpace=wrap;html=1;aspect=fixed;fillColor=none;" vertex="1" parent="rxUJbZOCz-eb5tTTkF2c-18">
          <mxGeometry x="25" width="40" height="40" as="geometry" />
        </mxCell>
        <mxCell id="rxUJbZOCz-eb5tTTkF2c-21" value="&lt;b style=&quot;font-size: 15px;&quot;&gt;Чарли&lt;/b&gt;" style="text;html=1;strokeColor=none;fillColor=none;align=center;verticalAlign=middle;whiteSpace=wrap;rounded=0;" vertex="1" parent="rxUJbZOCz-eb5tTTkF2c-18">
          <mxGeometry x="15" y="40" width="60" height="30" as="geometry" />
        </mxCell>
        <mxCell id="rxUJbZOCz-eb5tTTkF2c-22" value="" style="group" vertex="1" connectable="0" parent="1">
          <mxGeometry x="300" y="470" width="120" height="70" as="geometry" />
        </mxCell>
        <mxCell id="rxUJbZOCz-eb5tTTkF2c-23" value="" style="shape=hexagon;perimeter=hexagonPerimeter2;whiteSpace=wrap;html=1;fixedSize=1;fillColor=none;" vertex="1" parent="rxUJbZOCz-eb5tTTkF2c-22">
          <mxGeometry width="120" height="70" as="geometry" />
        </mxCell>
        <mxCell id="rxUJbZOCz-eb5tTTkF2c-24" value="&lt;b&gt;&lt;font style=&quot;font-size: 15px;&quot;&gt;2&lt;/font&gt;&lt;/b&gt;" style="rounded=0;whiteSpace=wrap;html=1;fillColor=none;" vertex="1" parent="rxUJbZOCz-eb5tTTkF2c-22">
          <mxGeometry x="40" width="40" height="30" as="geometry" />
        </mxCell>
        <mxCell id="rxUJbZOCz-eb5tTTkF2c-25" value="&lt;b style=&quot;font-size: 13px;&quot;&gt;Роллинг Стоунз&lt;/b&gt;" style="text;html=1;strokeColor=none;fillColor=none;align=center;verticalAlign=middle;whiteSpace=wrap;rounded=0;fontFamily=Helvetica;" vertex="1" parent="rxUJbZOCz-eb5tTTkF2c-22">
          <mxGeometry x="30" y="30" width="60" height="30" as="geometry" />
        </mxCell>
        <mxCell id="rxUJbZOCz-eb5tTTkF2c-26" value="" style="edgeStyle=orthogonalEdgeStyle;rounded=0;orthogonalLoop=1;jettySize=auto;html=1;" edge="1" parent="1" source="rxUJbZOCz-eb5tTTkF2c-10">
          <mxGeometry relative="1" as="geometry">
            <mxPoint x="220" y="460" as="targetPoint" />
          </mxGeometry>
        </mxCell>
        <mxCell id="rxUJbZOCz-eb5tTTkF2c-27" value="" style="edgeStyle=orthogonalEdgeStyle;rounded=0;orthogonalLoop=1;jettySize=auto;html=1;" edge="1" parent="1" source="rxUJbZOCz-eb5tTTkF2c-2">
          <mxGeometry relative="1" as="geometry">
            <mxPoint x="75" y="460" as="targetPoint" />
            <Array as="points">
              <mxPoint x="75" y="450" />
              <mxPoint x="75" y="450" />
            </Array>
          </mxGeometry>
        </mxCell>
        <mxCell id="rxUJbZOCz-eb5tTTkF2c-28" value="" style="edgeStyle=orthogonalEdgeStyle;rounded=0;orthogonalLoop=1;jettySize=auto;html=1;" edge="1" parent="1" source="rxUJbZOCz-eb5tTTkF2c-19">
          <mxGeometry relative="1" as="geometry">
            <mxPoint x="360" y="460" as="targetPoint" />
          </mxGeometry>
        </mxCell>
        <mxCell id="rxUJbZOCz-eb5tTTkF2c-29" value="" style="group" vertex="1" connectable="0" parent="1">
          <mxGeometry x="455" y="320" width="90" height="90" as="geometry" />
        </mxCell>
        <mxCell id="rxUJbZOCz-eb5tTTkF2c-30" value="" style="ellipse;whiteSpace=wrap;html=1;aspect=fixed;fillColor=none;" vertex="1" parent="rxUJbZOCz-eb5tTTkF2c-29">
          <mxGeometry width="90" height="90" as="geometry" />
        </mxCell>
        <mxCell id="rxUJbZOCz-eb5tTTkF2c-31" value="&lt;b style=&quot;font-size: 15px;&quot;&gt;8&lt;/b&gt;" style="ellipse;whiteSpace=wrap;html=1;aspect=fixed;fillColor=none;" vertex="1" parent="rxUJbZOCz-eb5tTTkF2c-29">
          <mxGeometry x="25" width="40" height="40" as="geometry" />
        </mxCell>
        <mxCell id="rxUJbZOCz-eb5tTTkF2c-32" value="&lt;b style=&quot;font-size: 15px;&quot;&gt;Ронни&lt;/b&gt;" style="text;html=1;strokeColor=none;fillColor=none;align=center;verticalAlign=middle;whiteSpace=wrap;rounded=0;" vertex="1" parent="rxUJbZOCz-eb5tTTkF2c-29">
          <mxGeometry x="15" y="40" width="60" height="30" as="geometry" />
        </mxCell>
        <mxCell id="rxUJbZOCz-eb5tTTkF2c-33" value="" style="group" vertex="1" connectable="0" parent="1">
          <mxGeometry x="440" y="470" width="120" height="70" as="geometry" />
        </mxCell>
        <mxCell id="rxUJbZOCz-eb5tTTkF2c-34" value="" style="shape=hexagon;perimeter=hexagonPerimeter2;whiteSpace=wrap;html=1;fixedSize=1;fillColor=none;" vertex="1" parent="rxUJbZOCz-eb5tTTkF2c-33">
          <mxGeometry width="120" height="70" as="geometry" />
        </mxCell>
        <mxCell id="rxUJbZOCz-eb5tTTkF2c-35" value="&lt;b&gt;&lt;font style=&quot;font-size: 15px;&quot;&gt;2&lt;/font&gt;&lt;/b&gt;" style="rounded=0;whiteSpace=wrap;html=1;fillColor=none;" vertex="1" parent="rxUJbZOCz-eb5tTTkF2c-33">
          <mxGeometry x="40" width="40" height="30" as="geometry" />
        </mxCell>
        <mxCell id="rxUJbZOCz-eb5tTTkF2c-36" value="&lt;b style=&quot;font-size: 13px;&quot;&gt;Роллинг Стоунз&lt;/b&gt;" style="text;html=1;strokeColor=none;fillColor=none;align=center;verticalAlign=middle;whiteSpace=wrap;rounded=0;fontFamily=Helvetica;" vertex="1" parent="rxUJbZOCz-eb5tTTkF2c-33">
          <mxGeometry x="30" y="30" width="60" height="30" as="geometry" />
        </mxCell>
        <mxCell id="rxUJbZOCz-eb5tTTkF2c-37" value="" style="edgeStyle=orthogonalEdgeStyle;rounded=0;orthogonalLoop=1;jettySize=auto;html=1;" edge="1" parent="1" source="rxUJbZOCz-eb5tTTkF2c-30">
          <mxGeometry relative="1" as="geometry">
            <mxPoint x="500" y="460" as="targetPoint" />
          </mxGeometry>
        </mxCell>
      </root>
    </mxGraphModel>
  </diagram>
  <diagram id="ZtizKayCJDsw2d_P4Uu9" name="PerformsIn">
    <mxGraphModel dx="1290" dy="557" grid="1" gridSize="10" guides="1" tooltips="1" connect="1" arrows="1" fold="1" page="1" pageScale="1" pageWidth="827" pageHeight="1169" math="0" shadow="0">
      <root>
        <mxCell id="0" />
        <mxCell id="1" parent="0" />
        <mxCell id="ksoUv9whs91uJBf_QU0n-1" value="" style="group" vertex="1" connectable="0" parent="1">
          <mxGeometry x="150" y="280" width="120" height="70" as="geometry" />
        </mxCell>
        <mxCell id="ksoUv9whs91uJBf_QU0n-2" value="" style="shape=hexagon;perimeter=hexagonPerimeter2;whiteSpace=wrap;html=1;fixedSize=1;fillColor=none;" vertex="1" parent="ksoUv9whs91uJBf_QU0n-1">
          <mxGeometry width="120" height="70" as="geometry" />
        </mxCell>
        <mxCell id="ksoUv9whs91uJBf_QU0n-3" value="&lt;b&gt;&lt;font style=&quot;font-size: 15px;&quot;&gt;1&lt;/font&gt;&lt;/b&gt;" style="rounded=0;whiteSpace=wrap;html=1;fillColor=none;" vertex="1" parent="ksoUv9whs91uJBf_QU0n-1">
          <mxGeometry x="40" width="40" height="30" as="geometry" />
        </mxCell>
        <mxCell id="ksoUv9whs91uJBf_QU0n-4" value="&lt;span style=&quot;font-size: 13px;&quot;&gt;&lt;b&gt;Битлз&lt;/b&gt;&lt;/span&gt;" style="text;html=1;strokeColor=none;fillColor=none;align=center;verticalAlign=middle;whiteSpace=wrap;rounded=0;fontFamily=Helvetica;" vertex="1" parent="ksoUv9whs91uJBf_QU0n-1">
          <mxGeometry x="30" y="30" width="60" height="30" as="geometry" />
        </mxCell>
        <mxCell id="ksoUv9whs91uJBf_QU0n-5" value="" style="group" vertex="1" connectable="0" parent="1">
          <mxGeometry x="570" y="290" width="120" height="70" as="geometry" />
        </mxCell>
        <mxCell id="ksoUv9whs91uJBf_QU0n-6" value="" style="shape=hexagon;perimeter=hexagonPerimeter2;whiteSpace=wrap;html=1;fixedSize=1;fillColor=none;" vertex="1" parent="ksoUv9whs91uJBf_QU0n-5">
          <mxGeometry width="120" height="70" as="geometry" />
        </mxCell>
        <mxCell id="ksoUv9whs91uJBf_QU0n-7" value="&lt;b&gt;&lt;font style=&quot;font-size: 15px;&quot;&gt;2&lt;/font&gt;&lt;/b&gt;" style="rounded=0;whiteSpace=wrap;html=1;fillColor=none;" vertex="1" parent="ksoUv9whs91uJBf_QU0n-5">
          <mxGeometry x="40" width="40" height="30" as="geometry" />
        </mxCell>
        <mxCell id="ksoUv9whs91uJBf_QU0n-8" value="&lt;span style=&quot;font-size: 13px;&quot;&gt;&lt;b&gt;Роллинг Стоунз&lt;/b&gt;&lt;/span&gt;" style="text;html=1;strokeColor=none;fillColor=none;align=center;verticalAlign=middle;whiteSpace=wrap;rounded=0;fontFamily=Helvetica;" vertex="1" parent="ksoUv9whs91uJBf_QU0n-5">
          <mxGeometry x="30" y="30" width="60" height="30" as="geometry" />
        </mxCell>
        <mxCell id="_3O1UFkaBbbf618TEmgY-1" value="" style="group" vertex="1" connectable="0" parent="1">
          <mxGeometry x="20" y="170" width="90" height="90" as="geometry" />
        </mxCell>
        <mxCell id="_3O1UFkaBbbf618TEmgY-2" value="" style="ellipse;whiteSpace=wrap;html=1;aspect=fixed;fillColor=none;" vertex="1" parent="_3O1UFkaBbbf618TEmgY-1">
          <mxGeometry width="90" height="90" as="geometry" />
        </mxCell>
        <mxCell id="_3O1UFkaBbbf618TEmgY-3" value="&lt;font style=&quot;font-size: 15px;&quot;&gt;&lt;b&gt;1&lt;/b&gt;&lt;/font&gt;" style="ellipse;whiteSpace=wrap;html=1;aspect=fixed;fillColor=none;" vertex="1" parent="_3O1UFkaBbbf618TEmgY-1">
          <mxGeometry x="25" width="40" height="40" as="geometry" />
        </mxCell>
        <mxCell id="_3O1UFkaBbbf618TEmgY-4" value="&lt;span style=&quot;font-size: 14px;&quot;&gt;&lt;b&gt;Джон&lt;/b&gt;&lt;/span&gt;" style="text;html=1;strokeColor=none;fillColor=none;align=center;verticalAlign=middle;whiteSpace=wrap;rounded=0;" vertex="1" parent="_3O1UFkaBbbf618TEmgY-1">
          <mxGeometry x="15" y="40" width="60" height="30" as="geometry" />
        </mxCell>
        <mxCell id="_3O1UFkaBbbf618TEmgY-5" value="" style="group" vertex="1" connectable="0" parent="1">
          <mxGeometry x="120" y="130" width="90" height="90" as="geometry" />
        </mxCell>
        <mxCell id="_3O1UFkaBbbf618TEmgY-6" value="" style="ellipse;whiteSpace=wrap;html=1;aspect=fixed;fillColor=none;" vertex="1" parent="_3O1UFkaBbbf618TEmgY-5">
          <mxGeometry width="90" height="90" as="geometry" />
        </mxCell>
        <mxCell id="_3O1UFkaBbbf618TEmgY-7" value="&lt;b style=&quot;font-size: 15px;&quot;&gt;2&lt;/b&gt;" style="ellipse;whiteSpace=wrap;html=1;aspect=fixed;fillColor=none;" vertex="1" parent="_3O1UFkaBbbf618TEmgY-5">
          <mxGeometry x="25" width="40" height="40" as="geometry" />
        </mxCell>
        <mxCell id="_3O1UFkaBbbf618TEmgY-8" value="&lt;b style=&quot;font-size: 14px;&quot;&gt;Пол&lt;/b&gt;" style="text;html=1;strokeColor=none;fillColor=none;align=center;verticalAlign=middle;whiteSpace=wrap;rounded=0;" vertex="1" parent="_3O1UFkaBbbf618TEmgY-5">
          <mxGeometry x="15" y="40" width="60" height="30" as="geometry" />
        </mxCell>
        <mxCell id="_3O1UFkaBbbf618TEmgY-9" value="" style="group" vertex="1" connectable="0" parent="1">
          <mxGeometry x="220" y="130" width="90" height="90" as="geometry" />
        </mxCell>
        <mxCell id="_3O1UFkaBbbf618TEmgY-10" value="" style="ellipse;whiteSpace=wrap;html=1;aspect=fixed;fillColor=none;" vertex="1" parent="_3O1UFkaBbbf618TEmgY-9">
          <mxGeometry width="90" height="90" as="geometry" />
        </mxCell>
        <mxCell id="_3O1UFkaBbbf618TEmgY-11" value="&lt;font style=&quot;font-size: 15px;&quot;&gt;&lt;b&gt;3&lt;/b&gt;&lt;/font&gt;" style="ellipse;whiteSpace=wrap;html=1;aspect=fixed;fillColor=none;" vertex="1" parent="_3O1UFkaBbbf618TEmgY-9">
          <mxGeometry x="25" width="40" height="40" as="geometry" />
        </mxCell>
        <mxCell id="_3O1UFkaBbbf618TEmgY-12" value="&lt;b style=&quot;font-size: 14px;&quot;&gt;Джордж&lt;/b&gt;" style="text;html=1;strokeColor=none;fillColor=none;align=center;verticalAlign=middle;whiteSpace=wrap;rounded=0;" vertex="1" parent="_3O1UFkaBbbf618TEmgY-9">
          <mxGeometry x="15" y="40" width="60" height="30" as="geometry" />
        </mxCell>
        <mxCell id="_3O1UFkaBbbf618TEmgY-13" value="" style="group" vertex="1" connectable="0" parent="1">
          <mxGeometry x="310" y="170" width="90" height="90" as="geometry" />
        </mxCell>
        <mxCell id="_3O1UFkaBbbf618TEmgY-14" value="" style="ellipse;whiteSpace=wrap;html=1;aspect=fixed;fillColor=none;" vertex="1" parent="_3O1UFkaBbbf618TEmgY-13">
          <mxGeometry width="90" height="90" as="geometry" />
        </mxCell>
        <mxCell id="_3O1UFkaBbbf618TEmgY-15" value="&lt;b style=&quot;font-size: 15px;&quot;&gt;4&lt;/b&gt;" style="ellipse;whiteSpace=wrap;html=1;aspect=fixed;fillColor=none;" vertex="1" parent="_3O1UFkaBbbf618TEmgY-13">
          <mxGeometry x="24" y="10" width="40" height="40" as="geometry" />
        </mxCell>
        <mxCell id="_3O1UFkaBbbf618TEmgY-16" value="&lt;b style=&quot;font-size: 14px;&quot;&gt;Ринго&lt;/b&gt;" style="text;html=1;strokeColor=none;fillColor=none;align=center;verticalAlign=middle;whiteSpace=wrap;rounded=0;" vertex="1" parent="_3O1UFkaBbbf618TEmgY-13">
          <mxGeometry x="14" y="50" width="60" height="30" as="geometry" />
        </mxCell>
        <mxCell id="_3O1UFkaBbbf618TEmgY-17" style="edgeStyle=orthogonalEdgeStyle;rounded=0;orthogonalLoop=1;jettySize=auto;html=1;entryX=0;entryY=0.5;entryDx=0;entryDy=0;" edge="1" parent="1" source="_3O1UFkaBbbf618TEmgY-2" target="ksoUv9whs91uJBf_QU0n-2">
          <mxGeometry relative="1" as="geometry" />
        </mxCell>
        <mxCell id="_3O1UFkaBbbf618TEmgY-19" value="" style="edgeStyle=orthogonalEdgeStyle;rounded=0;orthogonalLoop=1;jettySize=auto;html=1;entryX=0.25;entryY=0;entryDx=0;entryDy=0;" edge="1" parent="1" source="_3O1UFkaBbbf618TEmgY-6" target="ksoUv9whs91uJBf_QU0n-3">
          <mxGeometry relative="1" as="geometry" />
        </mxCell>
        <mxCell id="_3O1UFkaBbbf618TEmgY-20" value="" style="edgeStyle=orthogonalEdgeStyle;rounded=0;orthogonalLoop=1;jettySize=auto;html=1;entryX=0.75;entryY=0;entryDx=0;entryDy=0;" edge="1" parent="1" source="_3O1UFkaBbbf618TEmgY-10" target="ksoUv9whs91uJBf_QU0n-3">
          <mxGeometry relative="1" as="geometry">
            <mxPoint x="220" y="270" as="targetPoint" />
          </mxGeometry>
        </mxCell>
        <mxCell id="_3O1UFkaBbbf618TEmgY-21" style="edgeStyle=orthogonalEdgeStyle;rounded=0;orthogonalLoop=1;jettySize=auto;html=1;entryX=0.983;entryY=0.677;entryDx=0;entryDy=0;entryPerimeter=0;" edge="1" parent="1" source="_3O1UFkaBbbf618TEmgY-14" target="ksoUv9whs91uJBf_QU0n-2">
          <mxGeometry relative="1" as="geometry">
            <mxPoint x="280" y="320" as="targetPoint" />
            <Array as="points">
              <mxPoint x="290" y="250" />
              <mxPoint x="290" y="327" />
            </Array>
          </mxGeometry>
        </mxCell>
        <mxCell id="OgfHvs84b5WWyJ424owJ-1" value="" style="group" vertex="1" connectable="0" parent="1">
          <mxGeometry x="440" y="190" width="90" height="90" as="geometry" />
        </mxCell>
        <mxCell id="OgfHvs84b5WWyJ424owJ-2" value="" style="ellipse;whiteSpace=wrap;html=1;aspect=fixed;fillColor=none;" vertex="1" parent="OgfHvs84b5WWyJ424owJ-1">
          <mxGeometry width="90" height="90" as="geometry" />
        </mxCell>
        <mxCell id="OgfHvs84b5WWyJ424owJ-3" value="&lt;font style=&quot;font-size: 15px;&quot;&gt;&lt;b&gt;5&lt;/b&gt;&lt;/font&gt;" style="ellipse;whiteSpace=wrap;html=1;aspect=fixed;fillColor=none;" vertex="1" parent="OgfHvs84b5WWyJ424owJ-1">
          <mxGeometry x="25" width="40" height="40" as="geometry" />
        </mxCell>
        <mxCell id="OgfHvs84b5WWyJ424owJ-4" value="&lt;b style=&quot;font-size: 15px;&quot;&gt;Мик&lt;/b&gt;" style="text;html=1;strokeColor=none;fillColor=none;align=center;verticalAlign=middle;whiteSpace=wrap;rounded=0;" vertex="1" parent="OgfHvs84b5WWyJ424owJ-1">
          <mxGeometry x="15" y="40" width="60" height="30" as="geometry" />
        </mxCell>
        <mxCell id="OgfHvs84b5WWyJ424owJ-5" value="" style="group" vertex="1" connectable="0" parent="1">
          <mxGeometry x="530" y="120" width="90" height="90" as="geometry" />
        </mxCell>
        <mxCell id="OgfHvs84b5WWyJ424owJ-6" value="" style="ellipse;whiteSpace=wrap;html=1;aspect=fixed;fillColor=none;" vertex="1" parent="OgfHvs84b5WWyJ424owJ-5">
          <mxGeometry width="90" height="90" as="geometry" />
        </mxCell>
        <mxCell id="OgfHvs84b5WWyJ424owJ-7" value="&lt;b style=&quot;font-size: 15px;&quot;&gt;6&lt;/b&gt;" style="ellipse;whiteSpace=wrap;html=1;aspect=fixed;fillColor=none;" vertex="1" parent="OgfHvs84b5WWyJ424owJ-5">
          <mxGeometry x="25" width="40" height="40" as="geometry" />
        </mxCell>
        <mxCell id="OgfHvs84b5WWyJ424owJ-8" value="&lt;b style=&quot;font-size: 15px;&quot;&gt;Кит&lt;/b&gt;" style="text;html=1;strokeColor=none;fillColor=none;align=center;verticalAlign=middle;whiteSpace=wrap;rounded=0;" vertex="1" parent="OgfHvs84b5WWyJ424owJ-5">
          <mxGeometry x="15" y="40" width="60" height="30" as="geometry" />
        </mxCell>
        <mxCell id="OgfHvs84b5WWyJ424owJ-9" value="" style="group" vertex="1" connectable="0" parent="1">
          <mxGeometry x="630" y="120" width="90" height="90" as="geometry" />
        </mxCell>
        <mxCell id="OgfHvs84b5WWyJ424owJ-10" value="" style="ellipse;whiteSpace=wrap;html=1;aspect=fixed;fillColor=none;" vertex="1" parent="OgfHvs84b5WWyJ424owJ-9">
          <mxGeometry width="90" height="90" as="geometry" />
        </mxCell>
        <mxCell id="OgfHvs84b5WWyJ424owJ-11" value="&lt;font style=&quot;font-size: 15px;&quot;&gt;&lt;b&gt;7&lt;/b&gt;&lt;/font&gt;" style="ellipse;whiteSpace=wrap;html=1;aspect=fixed;fillColor=none;" vertex="1" parent="OgfHvs84b5WWyJ424owJ-9">
          <mxGeometry x="25" width="45" height="45" as="geometry" />
        </mxCell>
        <mxCell id="OgfHvs84b5WWyJ424owJ-12" value="&lt;b style=&quot;font-size: 15px;&quot;&gt;Чарли&lt;/b&gt;" style="text;html=1;strokeColor=none;fillColor=none;align=center;verticalAlign=middle;whiteSpace=wrap;rounded=0;" vertex="1" parent="OgfHvs84b5WWyJ424owJ-9">
          <mxGeometry x="15" y="40" width="60" height="30" as="geometry" />
        </mxCell>
        <mxCell id="OgfHvs84b5WWyJ424owJ-13" value="" style="group" vertex="1" connectable="0" parent="1">
          <mxGeometry x="720" y="200" width="90" height="90" as="geometry" />
        </mxCell>
        <mxCell id="OgfHvs84b5WWyJ424owJ-14" value="" style="ellipse;whiteSpace=wrap;html=1;aspect=fixed;fillColor=none;" vertex="1" parent="OgfHvs84b5WWyJ424owJ-13">
          <mxGeometry width="90" height="90" as="geometry" />
        </mxCell>
        <mxCell id="OgfHvs84b5WWyJ424owJ-15" value="&lt;b style=&quot;font-size: 15px;&quot;&gt;8&lt;/b&gt;" style="ellipse;whiteSpace=wrap;html=1;aspect=fixed;fillColor=none;" vertex="1" parent="OgfHvs84b5WWyJ424owJ-13">
          <mxGeometry x="25" width="40" height="40" as="geometry" />
        </mxCell>
        <mxCell id="OgfHvs84b5WWyJ424owJ-16" value="&lt;b style=&quot;font-size: 15px;&quot;&gt;Ронни&lt;/b&gt;" style="text;html=1;strokeColor=none;fillColor=none;align=center;verticalAlign=middle;whiteSpace=wrap;rounded=0;" vertex="1" parent="OgfHvs84b5WWyJ424owJ-13">
          <mxGeometry x="15" y="40" width="60" height="30" as="geometry" />
        </mxCell>
        <mxCell id="OgfHvs84b5WWyJ424owJ-17" style="edgeStyle=orthogonalEdgeStyle;rounded=0;orthogonalLoop=1;jettySize=auto;html=1;exitX=1;exitY=1;exitDx=0;exitDy=0;entryX=0.047;entryY=0.391;entryDx=0;entryDy=0;entryPerimeter=0;" edge="1" parent="1" source="OgfHvs84b5WWyJ424owJ-2" target="ksoUv9whs91uJBf_QU0n-6">
          <mxGeometry relative="1" as="geometry" />
        </mxCell>
        <mxCell id="OgfHvs84b5WWyJ424owJ-18" style="edgeStyle=orthogonalEdgeStyle;rounded=0;orthogonalLoop=1;jettySize=auto;html=1;exitX=1;exitY=1;exitDx=0;exitDy=0;entryX=0;entryY=0;entryDx=0;entryDy=0;" edge="1" parent="1" source="OgfHvs84b5WWyJ424owJ-6" target="ksoUv9whs91uJBf_QU0n-7">
          <mxGeometry relative="1" as="geometry" />
        </mxCell>
        <mxCell id="OgfHvs84b5WWyJ424owJ-19" style="edgeStyle=orthogonalEdgeStyle;rounded=0;orthogonalLoop=1;jettySize=auto;html=1;exitX=0.5;exitY=1;exitDx=0;exitDy=0;entryX=0.75;entryY=0;entryDx=0;entryDy=0;" edge="1" parent="1" source="OgfHvs84b5WWyJ424owJ-10" target="ksoUv9whs91uJBf_QU0n-7">
          <mxGeometry relative="1" as="geometry" />
        </mxCell>
        <mxCell id="OgfHvs84b5WWyJ424owJ-20" style="edgeStyle=orthogonalEdgeStyle;rounded=0;orthogonalLoop=1;jettySize=auto;html=1;exitX=0.5;exitY=1;exitDx=0;exitDy=0;entryX=1;entryY=0.25;entryDx=0;entryDy=0;" edge="1" parent="1" source="OgfHvs84b5WWyJ424owJ-14" target="ksoUv9whs91uJBf_QU0n-6">
          <mxGeometry relative="1" as="geometry" />
        </mxCell>
        <mxCell id="mWs1nJ4asxEF7j3wiCfd-1" value="" style="group" vertex="1" connectable="0" parent="1">
          <mxGeometry x="349" y="584.5" width="130" height="80" as="geometry" />
        </mxCell>
        <mxCell id="mWs1nJ4asxEF7j3wiCfd-2" value="" style="rounded=0;whiteSpace=wrap;html=1;fillColor=none;" vertex="1" parent="mWs1nJ4asxEF7j3wiCfd-1">
          <mxGeometry width="120" height="80" as="geometry" />
        </mxCell>
        <mxCell id="mWs1nJ4asxEF7j3wiCfd-3" value="&lt;b&gt;&lt;font style=&quot;font-size: 15px;&quot;&gt;1&lt;/font&gt;&lt;/b&gt;" style="rounded=0;whiteSpace=wrap;html=1;fillColor=none;" vertex="1" parent="mWs1nJ4asxEF7j3wiCfd-1">
          <mxGeometry x="40" width="40" height="30" as="geometry" />
        </mxCell>
        <mxCell id="mWs1nJ4asxEF7j3wiCfd-4" value="&lt;b style=&quot;&quot;&gt;&lt;font style=&quot;font-size: 12px;&quot;&gt;Мэдисон Сквер Гарден&lt;/font&gt;&lt;/b&gt;" style="text;html=1;strokeColor=none;fillColor=none;align=center;verticalAlign=middle;whiteSpace=wrap;rounded=0;" vertex="1" parent="mWs1nJ4asxEF7j3wiCfd-1">
          <mxGeometry x="10" y="40" width="100" height="30" as="geometry" />
        </mxCell>
        <mxCell id="mWs1nJ4asxEF7j3wiCfd-5" value="" style="group" vertex="1" connectable="0" parent="1">
          <mxGeometry x="354" y="480" width="120" height="80" as="geometry" />
        </mxCell>
        <mxCell id="mWs1nJ4asxEF7j3wiCfd-6" value="" style="rounded=0;whiteSpace=wrap;html=1;fillColor=none;" vertex="1" parent="mWs1nJ4asxEF7j3wiCfd-5">
          <mxGeometry width="120" height="80" as="geometry" />
        </mxCell>
        <mxCell id="mWs1nJ4asxEF7j3wiCfd-7" value="&lt;b&gt;&lt;font style=&quot;font-size: 15px;&quot;&gt;2&lt;/font&gt;&lt;/b&gt;" style="rounded=0;whiteSpace=wrap;html=1;fillColor=none;" vertex="1" parent="mWs1nJ4asxEF7j3wiCfd-5">
          <mxGeometry x="40" width="40" height="30" as="geometry" />
        </mxCell>
        <mxCell id="mWs1nJ4asxEF7j3wiCfd-8" value="&lt;b&gt;О2 Арена&lt;/b&gt;" style="text;html=1;strokeColor=none;fillColor=none;align=center;verticalAlign=middle;whiteSpace=wrap;rounded=0;" vertex="1" parent="mWs1nJ4asxEF7j3wiCfd-5">
          <mxGeometry x="10" y="40" width="100" height="30" as="geometry" />
        </mxCell>
        <mxCell id="mWs1nJ4asxEF7j3wiCfd-9" value="" style="group" vertex="1" connectable="0" parent="1">
          <mxGeometry x="354" y="690" width="120" height="80" as="geometry" />
        </mxCell>
        <mxCell id="mWs1nJ4asxEF7j3wiCfd-10" value="" style="rounded=0;whiteSpace=wrap;html=1;fillColor=none;" vertex="1" parent="mWs1nJ4asxEF7j3wiCfd-9">
          <mxGeometry width="120" height="80" as="geometry" />
        </mxCell>
        <mxCell id="mWs1nJ4asxEF7j3wiCfd-11" value="&lt;b&gt;&lt;font style=&quot;font-size: 15px;&quot;&gt;3&lt;/font&gt;&lt;/b&gt;" style="rounded=0;whiteSpace=wrap;html=1;fillColor=none;" vertex="1" parent="mWs1nJ4asxEF7j3wiCfd-9">
          <mxGeometry x="40" width="40" height="30" as="geometry" />
        </mxCell>
        <mxCell id="mWs1nJ4asxEF7j3wiCfd-12" value="&lt;b style=&quot;&quot;&gt;&lt;font style=&quot;font-size: 12px;&quot;&gt;Будокан&lt;/font&gt;&lt;/b&gt;" style="text;html=1;strokeColor=none;fillColor=none;align=center;verticalAlign=middle;whiteSpace=wrap;rounded=0;" vertex="1" parent="mWs1nJ4asxEF7j3wiCfd-9">
          <mxGeometry x="10" y="40" width="100" height="30" as="geometry" />
        </mxCell>
        <mxCell id="mWs1nJ4asxEF7j3wiCfd-20" style="edgeStyle=orthogonalEdgeStyle;rounded=0;orthogonalLoop=1;jettySize=auto;html=1;exitX=0.625;exitY=1;exitDx=0;exitDy=0;entryX=0;entryY=0.5;entryDx=0;entryDy=0;" edge="1" parent="1" source="ksoUv9whs91uJBf_QU0n-2" target="mWs1nJ4asxEF7j3wiCfd-6">
          <mxGeometry relative="1" as="geometry" />
        </mxCell>
        <mxCell id="mWs1nJ4asxEF7j3wiCfd-21" style="edgeStyle=orthogonalEdgeStyle;rounded=0;orthogonalLoop=1;jettySize=auto;html=1;exitX=0.625;exitY=1;exitDx=0;exitDy=0;entryX=-0.005;entryY=0.606;entryDx=0;entryDy=0;entryPerimeter=0;" edge="1" parent="1" source="ksoUv9whs91uJBf_QU0n-2" target="mWs1nJ4asxEF7j3wiCfd-2">
          <mxGeometry relative="1" as="geometry" />
        </mxCell>
        <mxCell id="mWs1nJ4asxEF7j3wiCfd-22" style="edgeStyle=orthogonalEdgeStyle;rounded=0;orthogonalLoop=1;jettySize=auto;html=1;exitX=0.625;exitY=1;exitDx=0;exitDy=0;entryX=0.007;entryY=0.418;entryDx=0;entryDy=0;entryPerimeter=0;" edge="1" parent="1" source="ksoUv9whs91uJBf_QU0n-2" target="mWs1nJ4asxEF7j3wiCfd-10">
          <mxGeometry relative="1" as="geometry" />
        </mxCell>
        <mxCell id="mWs1nJ4asxEF7j3wiCfd-23" style="edgeStyle=orthogonalEdgeStyle;rounded=0;orthogonalLoop=1;jettySize=auto;html=1;exitX=0.625;exitY=1;exitDx=0;exitDy=0;entryX=1;entryY=0.5;entryDx=0;entryDy=0;" edge="1" parent="1" source="ksoUv9whs91uJBf_QU0n-6" target="mWs1nJ4asxEF7j3wiCfd-6">
          <mxGeometry relative="1" as="geometry" />
        </mxCell>
        <mxCell id="mWs1nJ4asxEF7j3wiCfd-24" style="edgeStyle=orthogonalEdgeStyle;rounded=0;orthogonalLoop=1;jettySize=auto;html=1;exitX=0.625;exitY=1;exitDx=0;exitDy=0;entryX=1.008;entryY=0.606;entryDx=0;entryDy=0;entryPerimeter=0;" edge="1" parent="1" source="ksoUv9whs91uJBf_QU0n-6" target="mWs1nJ4asxEF7j3wiCfd-2">
          <mxGeometry relative="1" as="geometry" />
        </mxCell>
        <mxCell id="mWs1nJ4asxEF7j3wiCfd-25" style="edgeStyle=orthogonalEdgeStyle;rounded=0;orthogonalLoop=1;jettySize=auto;html=1;exitX=0.625;exitY=1;exitDx=0;exitDy=0;entryX=1;entryY=0.5;entryDx=0;entryDy=0;" edge="1" parent="1" source="ksoUv9whs91uJBf_QU0n-6" target="mWs1nJ4asxEF7j3wiCfd-10">
          <mxGeometry relative="1" as="geometry" />
        </mxCell>
      </root>
    </mxGraphModel>
  </diagram>
  <diagram id="Wtjr3dL0kbR8EJjJsWPp" name="LocatedIn">
    <mxGraphModel dx="1290" dy="557" grid="1" gridSize="10" guides="1" tooltips="1" connect="1" arrows="1" fold="1" page="1" pageScale="1" pageWidth="827" pageHeight="1169" math="0" shadow="0">
      <root>
        <mxCell id="0" />
        <mxCell id="1" parent="0" />
        <mxCell id="KSWZIScNIazcZBUVR5NO-13" value="" style="triangle;whiteSpace=wrap;html=1;rotation=-90;" vertex="1" parent="1">
          <mxGeometry x="200" y="460" width="80" height="120" as="geometry" />
        </mxCell>
        <mxCell id="KSWZIScNIazcZBUVR5NO-14" value="" style="ellipse;whiteSpace=wrap;html=1;" vertex="1" parent="1">
          <mxGeometry x="225" y="490" width="30" height="30" as="geometry" />
        </mxCell>
        <mxCell id="KSWZIScNIazcZBUVR5NO-15" value="1" style="text;html=1;align=center;verticalAlign=middle;whiteSpace=wrap;rounded=0;" vertex="1" parent="1">
          <mxGeometry x="225" y="495" width="30" height="20" as="geometry" />
        </mxCell>
        <mxCell id="KSWZIScNIazcZBUVR5NO-16" value="" style="triangle;whiteSpace=wrap;html=1;rotation=-90;" vertex="1" parent="1">
          <mxGeometry x="360" y="460" width="80" height="120" as="geometry" />
        </mxCell>
        <mxCell id="KSWZIScNIazcZBUVR5NO-17" value="" style="ellipse;whiteSpace=wrap;html=1;" vertex="1" parent="1">
          <mxGeometry x="385" y="490" width="30" height="30" as="geometry" />
        </mxCell>
        <mxCell id="KSWZIScNIazcZBUVR5NO-18" value="2" style="text;html=1;align=center;verticalAlign=middle;whiteSpace=wrap;rounded=0;" vertex="1" parent="1">
          <mxGeometry x="385" y="495" width="30" height="20" as="geometry" />
        </mxCell>
        <mxCell id="KSWZIScNIazcZBUVR5NO-19" value="" style="triangle;whiteSpace=wrap;html=1;rotation=-90;" vertex="1" parent="1">
          <mxGeometry x="520" y="460" width="80" height="120" as="geometry" />
        </mxCell>
        <mxCell id="KSWZIScNIazcZBUVR5NO-20" value="" style="ellipse;whiteSpace=wrap;html=1;" vertex="1" parent="1">
          <mxGeometry x="545" y="490" width="30" height="30" as="geometry" />
        </mxCell>
        <mxCell id="KSWZIScNIazcZBUVR5NO-21" value="3" style="text;html=1;align=center;verticalAlign=middle;whiteSpace=wrap;rounded=0;" vertex="1" parent="1">
          <mxGeometry x="545" y="495" width="30" height="20" as="geometry" />
        </mxCell>
        <mxCell id="KSWZIScNIazcZBUVR5NO-22" value="&lt;font style=&quot;font-size: 12px;&quot;&gt;Нью-Йорк&lt;/font&gt;" style="text;html=1;align=center;verticalAlign=middle;whiteSpace=wrap;rounded=0;" vertex="1" parent="1">
          <mxGeometry x="210" y="530" width="60" height="30" as="geometry" />
        </mxCell>
        <mxCell id="KSWZIScNIazcZBUVR5NO-23" value="Лондон" style="text;html=1;align=center;verticalAlign=middle;whiteSpace=wrap;rounded=0;" vertex="1" parent="1">
          <mxGeometry x="370" y="530" width="60" height="30" as="geometry" />
        </mxCell>
        <mxCell id="KSWZIScNIazcZBUVR5NO-24" value="Токио" style="text;html=1;align=center;verticalAlign=middle;whiteSpace=wrap;rounded=0;" vertex="1" parent="1">
          <mxGeometry x="530" y="530" width="60" height="30" as="geometry" />
        </mxCell>
        <mxCell id="Bq5vxd3ke3ZvDU8wQA-6-1" value="" style="group" vertex="1" connectable="0" parent="1">
          <mxGeometry x="170" y="330" width="130" height="80" as="geometry" />
        </mxCell>
        <mxCell id="Bq5vxd3ke3ZvDU8wQA-6-2" value="" style="rounded=0;whiteSpace=wrap;html=1;fillColor=none;" vertex="1" parent="Bq5vxd3ke3ZvDU8wQA-6-1">
          <mxGeometry width="120" height="80" as="geometry" />
        </mxCell>
        <mxCell id="Bq5vxd3ke3ZvDU8wQA-6-3" value="&lt;b&gt;&lt;font style=&quot;font-size: 15px;&quot;&gt;1&lt;/font&gt;&lt;/b&gt;" style="rounded=0;whiteSpace=wrap;html=1;fillColor=none;" vertex="1" parent="Bq5vxd3ke3ZvDU8wQA-6-1">
          <mxGeometry x="40" width="40" height="30" as="geometry" />
        </mxCell>
        <mxCell id="Bq5vxd3ke3ZvDU8wQA-6-4" value="&lt;b style=&quot;&quot;&gt;&lt;font style=&quot;font-size: 12px;&quot;&gt;Мэдисон Сквер Гарден&lt;/font&gt;&lt;/b&gt;" style="text;html=1;strokeColor=none;fillColor=none;align=center;verticalAlign=middle;whiteSpace=wrap;rounded=0;" vertex="1" parent="Bq5vxd3ke3ZvDU8wQA-6-1">
          <mxGeometry x="10" y="40" width="100" height="30" as="geometry" />
        </mxCell>
        <mxCell id="Bq5vxd3ke3ZvDU8wQA-6-5" value="" style="group" vertex="1" connectable="0" parent="1">
          <mxGeometry x="330" y="330" width="120" height="80" as="geometry" />
        </mxCell>
        <mxCell id="Bq5vxd3ke3ZvDU8wQA-6-6" value="" style="rounded=0;whiteSpace=wrap;html=1;fillColor=none;" vertex="1" parent="Bq5vxd3ke3ZvDU8wQA-6-5">
          <mxGeometry width="120" height="80" as="geometry" />
        </mxCell>
        <mxCell id="Bq5vxd3ke3ZvDU8wQA-6-7" value="&lt;b&gt;&lt;font style=&quot;font-size: 15px;&quot;&gt;2&lt;/font&gt;&lt;/b&gt;" style="rounded=0;whiteSpace=wrap;html=1;fillColor=none;" vertex="1" parent="Bq5vxd3ke3ZvDU8wQA-6-5">
          <mxGeometry x="40" width="40" height="30" as="geometry" />
        </mxCell>
        <mxCell id="Bq5vxd3ke3ZvDU8wQA-6-8" value="&lt;b&gt;О2 Арена&lt;/b&gt;" style="text;html=1;strokeColor=none;fillColor=none;align=center;verticalAlign=middle;whiteSpace=wrap;rounded=0;" vertex="1" parent="Bq5vxd3ke3ZvDU8wQA-6-5">
          <mxGeometry x="10" y="40" width="100" height="30" as="geometry" />
        </mxCell>
        <mxCell id="Bq5vxd3ke3ZvDU8wQA-6-9" value="" style="group" vertex="1" connectable="0" parent="1">
          <mxGeometry x="490" y="330" width="120" height="80" as="geometry" />
        </mxCell>
        <mxCell id="nys65kwr31jbt6kq5j4h-20" style="edgeStyle=orthogonalEdgeStyle;rounded=0;orthogonalLoop=1;jettySize=auto;html=1;exitX=0.5;exitY=1;exitDx=0;exitDy=0;" edge="1" parent="Bq5vxd3ke3ZvDU8wQA-6-9" source="Bq5vxd3ke3ZvDU8wQA-6-10">
          <mxGeometry relative="1" as="geometry">
            <mxPoint x="70" y="149.9999999999999" as="targetPoint" />
          </mxGeometry>
        </mxCell>
        <mxCell id="Bq5vxd3ke3ZvDU8wQA-6-10" value="" style="rounded=0;whiteSpace=wrap;html=1;fillColor=none;" vertex="1" parent="Bq5vxd3ke3ZvDU8wQA-6-9">
          <mxGeometry width="120" height="80" as="geometry" />
        </mxCell>
        <mxCell id="Bq5vxd3ke3ZvDU8wQA-6-11" value="&lt;b&gt;&lt;font style=&quot;font-size: 15px;&quot;&gt;3&lt;/font&gt;&lt;/b&gt;" style="rounded=0;whiteSpace=wrap;html=1;fillColor=none;" vertex="1" parent="Bq5vxd3ke3ZvDU8wQA-6-9">
          <mxGeometry x="40" width="40" height="30" as="geometry" />
        </mxCell>
        <mxCell id="Bq5vxd3ke3ZvDU8wQA-6-12" value="&lt;b style=&quot;&quot;&gt;&lt;font style=&quot;font-size: 12px;&quot;&gt;Будокан&lt;/font&gt;&lt;/b&gt;" style="text;html=1;strokeColor=none;fillColor=none;align=center;verticalAlign=middle;whiteSpace=wrap;rounded=0;" vertex="1" parent="Bq5vxd3ke3ZvDU8wQA-6-9">
          <mxGeometry x="10" y="40" width="100" height="30" as="geometry" />
        </mxCell>
        <mxCell id="nys65kwr31jbt6kq5j4h-1" value="" style="group" vertex="1" connectable="0" parent="1">
          <mxGeometry x="150" y="80" width="120" height="70" as="geometry" />
        </mxCell>
        <mxCell id="nys65kwr31jbt6kq5j4h-2" value="" style="shape=hexagon;perimeter=hexagonPerimeter2;whiteSpace=wrap;html=1;fixedSize=1;fillColor=none;" vertex="1" parent="nys65kwr31jbt6kq5j4h-1">
          <mxGeometry width="120" height="70" as="geometry" />
        </mxCell>
        <mxCell id="nys65kwr31jbt6kq5j4h-3" value="&lt;b&gt;&lt;font style=&quot;font-size: 15px;&quot;&gt;1&lt;/font&gt;&lt;/b&gt;" style="rounded=0;whiteSpace=wrap;html=1;fillColor=none;" vertex="1" parent="nys65kwr31jbt6kq5j4h-1">
          <mxGeometry x="40" width="40" height="30" as="geometry" />
        </mxCell>
        <mxCell id="nys65kwr31jbt6kq5j4h-4" value="&lt;span style=&quot;font-size: 13px;&quot;&gt;&lt;b&gt;Битлз&lt;/b&gt;&lt;/span&gt;" style="text;html=1;strokeColor=none;fillColor=none;align=center;verticalAlign=middle;whiteSpace=wrap;rounded=0;fontFamily=Helvetica;" vertex="1" parent="nys65kwr31jbt6kq5j4h-1">
          <mxGeometry x="30" y="30" width="60" height="30" as="geometry" />
        </mxCell>
        <mxCell id="nys65kwr31jbt6kq5j4h-5" value="" style="group" vertex="1" connectable="0" parent="1">
          <mxGeometry x="550" y="80" width="120" height="70" as="geometry" />
        </mxCell>
        <mxCell id="nys65kwr31jbt6kq5j4h-6" value="" style="shape=hexagon;perimeter=hexagonPerimeter2;whiteSpace=wrap;html=1;fixedSize=1;fillColor=none;" vertex="1" parent="nys65kwr31jbt6kq5j4h-5">
          <mxGeometry width="120" height="70" as="geometry" />
        </mxCell>
        <mxCell id="nys65kwr31jbt6kq5j4h-7" value="&lt;b&gt;&lt;font style=&quot;font-size: 15px;&quot;&gt;2&lt;/font&gt;&lt;/b&gt;" style="rounded=0;whiteSpace=wrap;html=1;fillColor=none;" vertex="1" parent="nys65kwr31jbt6kq5j4h-5">
          <mxGeometry x="40" width="40" height="30" as="geometry" />
        </mxCell>
        <mxCell id="nys65kwr31jbt6kq5j4h-8" value="&lt;span style=&quot;font-size: 13px;&quot;&gt;&lt;b&gt;Роллинг Стоунз&lt;/b&gt;&lt;/span&gt;" style="text;html=1;strokeColor=none;fillColor=none;align=center;verticalAlign=middle;whiteSpace=wrap;rounded=0;fontFamily=Helvetica;" vertex="1" parent="nys65kwr31jbt6kq5j4h-5">
          <mxGeometry x="30" y="30" width="60" height="30" as="geometry" />
        </mxCell>
        <mxCell id="nys65kwr31jbt6kq5j4h-9" style="edgeStyle=orthogonalEdgeStyle;rounded=0;orthogonalLoop=1;jettySize=auto;html=1;exitX=0.375;exitY=1;exitDx=0;exitDy=0;entryX=0.25;entryY=0;entryDx=0;entryDy=0;" edge="1" parent="1" source="nys65kwr31jbt6kq5j4h-2" target="Bq5vxd3ke3ZvDU8wQA-6-2">
          <mxGeometry relative="1" as="geometry">
            <Array as="points">
              <mxPoint x="195" y="320" />
              <mxPoint x="200" y="320" />
            </Array>
          </mxGeometry>
        </mxCell>
        <mxCell id="nys65kwr31jbt6kq5j4h-10" style="edgeStyle=orthogonalEdgeStyle;rounded=0;orthogonalLoop=1;jettySize=auto;html=1;exitX=0.375;exitY=1;exitDx=0;exitDy=0;entryX=0.25;entryY=0;entryDx=0;entryDy=0;" edge="1" parent="1" source="nys65kwr31jbt6kq5j4h-2" target="Bq5vxd3ke3ZvDU8wQA-6-6">
          <mxGeometry relative="1" as="geometry">
            <Array as="points">
              <mxPoint x="195" y="280" />
              <mxPoint x="360" y="280" />
            </Array>
          </mxGeometry>
        </mxCell>
        <mxCell id="nys65kwr31jbt6kq5j4h-11" style="edgeStyle=orthogonalEdgeStyle;rounded=0;orthogonalLoop=1;jettySize=auto;html=1;exitX=0.375;exitY=1;exitDx=0;exitDy=0;" edge="1" parent="1" source="nys65kwr31jbt6kq5j4h-2" target="Bq5vxd3ke3ZvDU8wQA-6-10">
          <mxGeometry relative="1" as="geometry">
            <Array as="points">
              <mxPoint x="195" y="280" />
              <mxPoint x="550" y="280" />
            </Array>
          </mxGeometry>
        </mxCell>
        <mxCell id="nys65kwr31jbt6kq5j4h-15" style="edgeStyle=orthogonalEdgeStyle;rounded=0;orthogonalLoop=1;jettySize=auto;html=1;exitX=0.375;exitY=1;exitDx=0;exitDy=0;entryX=1;entryY=0;entryDx=0;entryDy=0;" edge="1" parent="1" source="nys65kwr31jbt6kq5j4h-6" target="Bq5vxd3ke3ZvDU8wQA-6-11">
          <mxGeometry relative="1" as="geometry" />
        </mxCell>
        <mxCell id="nys65kwr31jbt6kq5j4h-16" style="edgeStyle=orthogonalEdgeStyle;rounded=0;orthogonalLoop=1;jettySize=auto;html=1;exitX=0.375;exitY=1;exitDx=0;exitDy=0;" edge="1" parent="1" source="nys65kwr31jbt6kq5j4h-6" target="Bq5vxd3ke3ZvDU8wQA-6-6">
          <mxGeometry relative="1" as="geometry" />
        </mxCell>
        <mxCell id="nys65kwr31jbt6kq5j4h-17" style="edgeStyle=orthogonalEdgeStyle;rounded=0;orthogonalLoop=1;jettySize=auto;html=1;exitX=0.375;exitY=1;exitDx=0;exitDy=0;entryX=0.834;entryY=0.021;entryDx=0;entryDy=0;entryPerimeter=0;" edge="1" parent="1" source="nys65kwr31jbt6kq5j4h-6" target="Bq5vxd3ke3ZvDU8wQA-6-2">
          <mxGeometry relative="1" as="geometry" />
        </mxCell>
        <mxCell id="nys65kwr31jbt6kq5j4h-19" style="edgeStyle=orthogonalEdgeStyle;rounded=0;orthogonalLoop=1;jettySize=auto;html=1;exitX=0.75;exitY=1;exitDx=0;exitDy=0;" edge="1" parent="1" source="Bq5vxd3ke3ZvDU8wQA-6-6" target="KSWZIScNIazcZBUVR5NO-16">
          <mxGeometry relative="1" as="geometry" />
        </mxCell>
        <mxCell id="nys65kwr31jbt6kq5j4h-21" style="edgeStyle=orthogonalEdgeStyle;rounded=0;orthogonalLoop=1;jettySize=auto;html=1;exitX=0.5;exitY=1;exitDx=0;exitDy=0;entryX=0.881;entryY=0.579;entryDx=0;entryDy=0;entryPerimeter=0;" edge="1" parent="1" source="Bq5vxd3ke3ZvDU8wQA-6-2" target="KSWZIScNIazcZBUVR5NO-13">
          <mxGeometry relative="1" as="geometry" />
        </mxCell>
      </root>
    </mxGraphModel>
  </diagram>
</mxfile>
